<svg xmlns="http://www.w3.org/2000/svg" xmlns:xlink="http://www.w3.org/1999/xlink" width="24" height="24" preserveAspectRatio="xMidYMid meet" viewBox="0 0 24 24" style="-ms-transform: rotate(360deg); -webkit-transform: rotate(360deg); transform: rotate(360deg);"><path d="M10 18a1 1 0 0 0 1-1v-6a1 1 0 0 0-2 0v6a1 1 0 0 0 1 1zM20 6h-4V5a3 3 0 0 0-3-3h-2a3 3 0 0 0-3 3v1H4a1 1 0 0 0 0 2h1v11a3 3 0 0 0 3 3h8a3 3 0 0 0 3-3V8h1a1 1 0 0 0 0-2zM10 5a1 1 0 0 1 1-1h2a1 1 0 0 1 1 1v1h-4zm7 14a1 1 0 0 1-1 1H8a1 1 0 0 1-1-1V8h10zm-3-1a1 1 0 0 0 1-1v-6a1 1 0 0 0-2 0v6a1 1 0 0 0 1 1z" fill="#626262"/><rect x="0" y="0" width="24" height="24" fill="rgba(0, 0, 0, 0)" /></svg>